<svg xmlns="http://www.w3.org/2000/svg" width="21" height="22" fill="none" viewBox="0 0 21 22">
  <path stroke="#fff" stroke-linecap="round" stroke-linejoin="round" d="M5.36 17.24h7.28m-7.28-4.16H6.4M5.36 8.92h3.12M5.36.6h9.88l4.68 4.68v13"/>
  <path stroke="#fff" stroke-linecap="round" stroke-linejoin="round" d="M1.2 19.84V5.28c0-.862.698-1.56 1.56-1.56h10.142a.62.62 0 0 1 .44.183l3.275 3.274a.624.624 0 0 1 .183.441V19.84a1.56 1.56 0 0 1-1.56 1.56H2.76a1.56 1.56 0 0 1-1.56-1.56Z"/>
  <path stroke="#fff" stroke-linecap="round" stroke-linejoin="round" d="M12.64 3.72v3.536c0 .345.28.624.624.624H16.8"/>
</svg>
