<svg xmlns="http://www.w3.org/2000/svg" width="26" height="22" fill="none" viewBox="0 0 26 22">
  <path fill="#1A837B" d="M1 18.778V7.667c0-1.228 1.075-2.223 2.4-2.223H4c.755 0 1.467-.329 1.92-.888l2.664-3.29A.74.74 0 0 1 9.16 1h7.68a.74.74 0 0 1 .576.267l2.664 3.289c.453.56 1.165.888 1.92.888h.6c1.325 0 2.4.995 2.4 2.223v11.11C25 20.006 23.925 21 22.6 21H3.4C2.075 21 1 20.005 1 18.778Z"/>
  <path fill="#fff" d="M13 17a4 4 0 1 0 0-8 4 4 0 0 0 0 8Z"/>
  <path stroke="#1A837B" stroke-linecap="round" stroke-linejoin="round" d="M1 18.778V7.667c0-1.228 1.075-2.223 2.4-2.223H4c.755 0 1.467-.329 1.92-.888l2.664-3.29A.74.74 0 0 1 9.16 1h7.68a.74.74 0 0 1 .576.267l2.664 3.289c.453.56 1.165.888 1.92.888h.6c1.325 0 2.4.995 2.4 2.223v11.11C25 20.006 23.925 21 22.6 21H3.4C2.075 21 1 20.005 1 18.778Z"/>
  <path stroke="#1A837B" stroke-linecap="round" stroke-linejoin="round" d="M13 17a4 4 0 1 0 0-8 4 4 0 0 0 0 8Z"/>
</svg>
