<svg xmlns="http://www.w3.org/2000/svg" width="137" height="111" fill="none" viewBox="0 0 137 111">
  <path stroke="#99D6DC" d="m93.996 8.918 6.198-4.866 7.435 2.612 1.229 7.434-6.198 4.866-7.434-2.611-1.23-7.435Zm-9.171 23.195 6.198-4.866 7.434 2.612 1.23 7.434-6.198 4.866-7.435-2.611-1.23-7.435Zm23.66 10.959 2.211-1.735 2.651.931.433 2.623-2.21 1.736-2.651-.932-.434-2.623ZM94.163 67.503l1.855-1.457 2.225.782.364 2.195-1.856 1.456-2.225-.781-.363-2.195Zm-23.694-7.581 1.006-.79 1.208.424.194 1.172-1.007.79-1.208-.424-.193-1.172Zm30.547-23.557.546-.448.66.249.115.696-.545.448-.661-.248-.115-.697ZM84.738 19.554l2.7-2.12 3.238 1.138.532 3.214-2.7 2.12-3.239-1.138-.531-3.214Zm32.722-.642 2.001-1.57 2.399.843.392 2.37-2 1.57-2.4-.843-.392-2.37Zm-6.057-9.23.881-.692 1.056.371.169 1.02-.881.691-1.057-.37-.168-1.02ZM8.861 65.39l.737-.579.884.31.14.846-.737.579-.884-.31-.14-.847ZM52.9 102.533l.881-.691 1.057.371.168 1.019-.88.692-1.057-.371-.169-1.02Zm57.246-74.607 6.198-4.866 7.435 2.612 1.229 7.434-6.198 4.866-7.434-2.612-1.23-7.434Z"/>
  <path stroke="#99D6DC" stroke-linecap="round" stroke-width="1.5" d="m97.41 13.432 3.389 1.526a1 1 0 0 0 1.319-.494l1.313-2.854 1.728-3.754M88.238 36.627l3.39 1.526a1 1 0 0 0 1.319-.494l1.313-2.854 1.728-3.754m17.572 1.389 3.389 1.525a1 1 0 0 0 1.319-.494l1.313-2.853 1.728-3.754"/>
  <path fill="#99D6DC" d="M103.376 26.36a.5.5 0 0 0 .987-.162l-.987.163Zm.987-.162-1.256-7.597-.987.163 1.256 7.597.987-.163Z"/>
  <path stroke="#99D6DC" stroke-linecap="round" d="m98.38 29.788 5.487-3.509m6.327 1.556-6.324-1.556"/>
</svg>
