<svg xmlns="http://www.w3.org/2000/svg" width="59" height="67" fill="none" viewBox="0 0 59 67">
    <path stroke="#FEC1CA"
          d="M32.5 1a.5.5 0 0 1 .5-.5h23A1.5 1.5 0 0 1 57.5 2v1a.5.5 0 0 1-.5.5H33a.5.5 0 0 1-.5-.5V1Zm-9 9A1.5 1.5 0 0 1 25 8.5h23a.5.5 0 0 1 .5.5v2a.5.5 0 0 1-.5.5H24a.5.5 0 0 1-.5-.5v-1Z"/>
    <path fill="#FEC1CA"
          d="M54 9a1 1 0 0 1 1-1h2.2a1 1 0 0 1 1 1v2.2a1 1 0 0 1-1 1H55a1 1 0 0 1-1-1V9ZM23 1a1 1 0 0 1 1-1h2.2a1 1 0 0 1 1 1v2.2a1 1 0 0 1-1 1H24a1 1 0 0 1-1-1V1Z"/>
    <path stroke="#FEC1CA"
          d="M32.5 17a.5.5 0 0 1 .5-.5h23a1.5 1.5 0 0 1 1.5 1.5v1a.5.5 0 0 1-.5.5H33a.5.5 0 0 1-.5-.5v-2Zm0 8a.5.5 0 0 1 .5-.5h23a1.5 1.5 0 0 1 1.5 1.5v1a.5.5 0 0 1-.5.5H33a.5.5 0 0 1-.5-.5v-2Z"/>
    <rect width="4.2" height="4.2" x="23" y="24" fill="#FEC1CA" rx="1"/>
    <rect width="4.2" height="4.2" x="23" y="33" fill="#FEC1CA" rx="1"/>
    <rect width="4.2" height="4.2" x="53" y="45" fill="#FEC1CA" rx="1"/>
    <rect width="4.2" height="4.2" x="23" y="16" fill="#FEC1CA" rx="1"/>
    <path stroke="#FEC1CA"
          d="M32.5 34a.5.5 0 0 1 .5-.5h23a1.5 1.5 0 0 1 1.5 1.5v1a.5.5 0 0 1-.5.5H33a.5.5 0 0 1-.5-.5v-2Zm17 12a.5.5 0 0 0-.5-.5h-4a1.5 1.5 0 0 0-1.5 1.5v1a.5.5 0 0 0 .5.5h5a.5.5 0 0 0 .5-.5v-2Z"/>
</svg>
