<svg xmlns="http://www.w3.org/2000/svg" width="22" height="22" fill="none" viewBox="0 0 22 22">
  <path fill="#1A837B" d="M6.5 9.5a.472.472 0 0 0-.5-.481A6.5 6.5 0 1 0 12.981 16a.472.472 0 0 0-.481-.5H7a.5.5 0 0 1-.5-.5V9.5Z"/>
  <path fill="#1A837B" d="M11.7 14a.284.284 0 0 0 .289-.3A4 4 0 0 0 8.3 10.011a.284.284 0 0 0-.3.289v3.4a.3.3 0 0 0 .3.3h3.4Zm-.95-13a.75.75 0 0 0-1.5 0h1.5Zm0 1V1h-1.5v1h1.5Zm8-1a.75.75 0 0 0-1.5 0h1.5Zm0 1V1h-1.5v1h1.5Z"/>
  <path fill="#1A837B" fill-rule="evenodd" d="M6 4a2 2 0 0 1 2-2h1.25v3a.75.75 0 0 0 1.5 0V2h6.5v3a.75.75 0 0 0 1.5 0V2H20a2 2 0 0 1 2 2v16a2 2 0 0 1-2 2h-8.636c-.307 0-.435-.439-.195-.63A7.5 7.5 0 0 0 6.5 8c-.27 0-.5-.213-.5-.484V4Zm7 4.5a.5.5 0 0 0 0 1h7a.5.5 0 0 0 0-1h-7Zm2.484 5.25a.5.5 0 0 1 .5-.5h4.031a.5.5 0 0 1 0 1h-4.03a.5.5 0 0 1-.5-.5ZM16 17.5a.5.5 0 0 0 0 1h4a.5.5 0 0 0 0-1h-4Z" clip-rule="evenodd"/>
</svg>
