<svg xmlns="http://www.w3.org/2000/svg" width="24" height="30" fill="none" viewBox="0 0 24 30">
  <path stroke="#fff" stroke-linecap="round" stroke-linejoin="round" stroke-width="1.5" d="M1 27.675V1.825C1 1.369 1.37 1 1.825 1h16.02c.22 0 .43.087.584.242l4.33 4.329a.825.825 0 0 1 .241.583v21.521c0 .456-.37.825-.825.825H1.825A.825.825 0 0 1 1 27.675ZM6.5 12h11m-11 11h11m-11-5.5H12"/>
  <path stroke="#fff" stroke-linecap="round" stroke-linejoin="round" stroke-width="1.5" d="M17.5 1v4.675c0 .456.37.825.825.825H23"/>
</svg>
