<svg xmlns="http://www.w3.org/2000/svg" width="30" height="30" fill="none" viewBox="0 0 30 30">
  <g filter="url(#a)">
    <rect width="21" height="21" x="4.5" y=".5" fill="#fff" stroke="#FFD872" rx="8.5"/>
    <path fill="#F7BF31" d="m12.952 8.442 1.559-3.14a.547.547 0 0 1 .978 0l1.559 3.14 3.485.506a.541.541 0 0 1 .302.925l-2.522 2.442.595 3.45a.545.545 0 0 1-.791.572L15 14.707l-3.117 1.63a.545.545 0 0 1-.791-.572l.595-3.45-2.522-2.442a.541.541 0 0 1 .302-.925l3.485-.506Z"/>
  </g>
  <defs>
    <filter id="a" width="30" height="30" x="0" y="0" color-interpolation-filters="sRGB" filterUnits="userSpaceOnUse">
      <feFlood flood-opacity="0" result="BackgroundImageFix"/>
      <feColorMatrix in="SourceAlpha" result="hardAlpha" values="0 0 0 0 0 0 0 0 0 0 0 0 0 0 0 0 0 0 127 0"/>
      <feOffset dy="4"/>
      <feGaussianBlur stdDeviation="2"/>
      <feComposite in2="hardAlpha" operator="out"/>
      <feColorMatrix values="0 0 0 0 0 0 0 0 0 0 0 0 0 0 0 0 0 0 0.12 0"/>
      <feBlend in2="BackgroundImageFix" result="effect1_dropShadow_1_3594"/>
      <feBlend in="SourceGraphic" in2="effect1_dropShadow_1_3594" result="shape"/>
    </filter>
  </defs>
</svg>
