<svg xmlns="http://www.w3.org/2000/svg" width="20" height="21" fill="none" viewBox="0 0 20 21">
  <path fill="#1A837B" fill-rule="evenodd" d="M12 9a4 4 0 0 0-4 4v4a4 4 0 0 0 4 4h4a4 4 0 0 0 4-4v-4a4 4 0 0 0-4-4h-4Zm5.072 4.308a.65.65 0 0 0-1.144-.616l-2.24 4.16-1.692-2a.65.65 0 1 0-.992.84l1.834 2.168a1.15 1.15 0 0 0 1.89-.198l2.344-4.354Z" clip-rule="evenodd"/>
  <path fill="#1A837B" d="M0 2.25A2.25 2.25 0 0 1 2.25 0h15.5A2.25 2.25 0 0 1 20 2.25a.75.75 0 0 1-.75.75H.75A.75.75 0 0 1 0 2.25ZM0 6a1 1 0 0 1 1-1h14a1 1 0 0 1 1 1 2 2 0 0 1-2 2H1a1 1 0 0 1-1-1V6Zm17 0a1 1 0 0 1 1-1h1a1 1 0 0 1 1 1v1a1 1 0 0 1-1 1h-1a1 1 0 0 1-1-1V6ZM0 11a1 1 0 0 1 1-1h5a1 1 0 0 1 1 1 2 2 0 0 1-2 2H1a1 1 0 0 1-1-1v-1Z"/>
  <rect width="3" height="3" y="14" fill="#1A837B" rx="1"/>
  <path fill="#1A837B" d="M0 18.75A.75.75 0 0 1 .75 18H5a2 2 0 0 1 2 2 1 1 0 0 1-1 1H2.25A2.25 2.25 0 0 1 0 18.75Z"/>
</svg>
