<svg xmlns="http://www.w3.org/2000/svg" width="18" height="20" fill="none" viewBox="0 0 18 20">
  <path stroke="#fff" stroke-linecap="round" stroke-linejoin="round" stroke-width="1.5" d="M14.333 19C15.806 19 17 17.79 17 16.3s-1.194-2.7-2.667-2.7c-1.472 0-2.666 1.209-2.666 2.7S12.86 19 14.333 19Zm0-12.6C15.806 6.4 17 5.191 17 3.7S15.806 1 14.333 1c-1.472 0-2.666 1.209-2.666 2.7s1.194 2.7 2.666 2.7ZM3.667 12.7c1.472 0 2.666-1.209 2.666-2.7S5.14 7.3 3.667 7.3C2.194 7.3 1 8.51 1 10s1.194 2.7 2.667 2.7Z"/>
  <path stroke="#fff" stroke-width="1.5" d="M12.111 5.05 5.89 8.65m-.001 2.7 6.222 3.6"/>
</svg>
